<svg width="30" height="32" viewBox="0 0 30 32" fill="none" xmlns="http://www.w3.org/2000/svg">
<path d="M16.9667 16.0181C16.9667 17.3159 15.9147 18.3679 14.6169 18.3679C13.3191 18.3679 12.2671 17.3159 12.2671 16.0181C12.2671 14.7203 13.3191 13.6683 14.6169 13.6683C15.9147 13.6683 16.9667 14.7203 16.9667 16.0181Z" fill="white"/>
<path d="M25.9051 16.0181C26.1616 15.6761 26.4009 15.346 26.6234 15.0279C27.5065 13.821 28.1351 12.4474 28.4704 10.99C27.8813 11.241 27.229 11.3038 26.6027 11.1696C26.2825 12.1902 25.8047 13.1545 25.1868 14.0274C25.05 14.2292 24.908 14.4294 24.761 14.6277C23.8519 13.6545 22.8747 12.7475 21.8365 11.9135C21.6583 10.3511 21.3495 8.80646 20.9129 7.29587C21.5456 7.19188 22.1855 7.13714 22.8267 7.13164C23.3049 7.12798 23.7825 7.1692 24.2529 7.25487C24.441 6.64517 24.8116 6.10782 25.315 5.71566L24.9765 5.62336C23.4416 5.30315 21.8575 5.30315 20.3229 5.62336C20.2409 5.41126 20.1552 5.20443 20.0664 5.00263C18.6861 1.76502 16.7468 0 14.6175 0C12.4883 0 10.5489 1.76508 9.15835 4.96645C9.06948 5.16824 8.98381 5.37531 8.90181 5.58718V5.58741C7.36718 5.2672 5.78305 5.2672 4.24848 5.58741L3.90995 5.67971H3.90972C4.41316 6.07185 4.78375 6.60922 4.9718 7.21892C5.44685 7.14471 5.92787 7.11539 6.40839 7.13165C7.05293 7.13486 7.69611 7.188 8.33238 7.29084C7.89581 8.80143 7.58681 10.3461 7.40885 11.9085C6.3738 12.7459 5.39985 13.6564 4.49467 14.6328C4.34419 14.431 4.20218 14.2308 4.06887 14.0325C3.45067 13.1595 2.9729 12.1953 2.65269 11.1746C2.01959 11.3116 1.35922 11.247 0.764648 10.99C1.09059 12.4449 1.70858 13.8185 2.58103 15.0279C2.81008 15.3461 3.05975 15.6761 3.33 16.0181C3.07346 16.3601 2.83411 16.6901 2.6117 17.0083C1.72852 18.2151 1.09999 19.5888 0.764648 21.0462C1.35377 20.7951 2.0061 20.7324 2.63234 20.8666C2.95255 19.846 3.43032 18.8816 4.04829 18.0088C4.18503 17.807 4.32704 17.6068 4.47409 17.4085C5.38319 18.3817 6.36031 19.2887 7.39859 20.1227C7.57679 21.6851 7.88555 23.2297 8.32211 24.7403C7.21535 24.94 6.08273 24.9522 4.9718 24.7763C4.78375 25.386 4.41315 25.9233 3.90972 26.3155L4.24825 26.4078H4.24848C4.95599 26.5757 5.6812 26.6565 6.40841 26.649C7.24492 26.643 8.07932 26.564 8.90181 26.4128C8.98381 26.6249 9.06948 26.8318 9.15835 27.0335C10.5487 30.2352 12.4883 32 14.6175 32C16.7468 32 18.6861 30.2349 20.0767 27.0335C20.1656 26.8318 20.2512 26.6247 20.3332 26.4128C21.1557 26.564 21.9902 26.643 22.8266 26.649C23.5538 26.6565 24.2791 26.5757 24.9866 26.4078L25.3251 26.3155H25.3253C24.8219 25.9233 24.4513 25.386 24.2632 24.7763C23.1524 24.9522 22.0197 24.94 20.9129 24.7403C21.3495 23.2297 21.6583 21.6851 21.8365 20.1227C22.8715 19.2851 23.8455 18.3746 24.7506 17.3984C24.9011 17.6002 25.0431 17.8004 25.1764 17.9987V17.9985C25.7946 18.8716 26.2724 19.8357 26.5926 20.8563C27.223 20.7232 27.8792 20.7894 28.4703 21.0462C28.1444 19.5913 27.5264 18.2177 26.654 17.0083C26.4249 16.6901 26.1752 16.3601 25.905 16.0181L25.9051 16.0181ZM20.2613 16.0181C20.2613 17.1006 20.21 18.1679 20.1124 19.1991C19.2599 19.8588 18.3746 20.4754 17.46 21.0462C16.5404 21.6266 15.5917 22.1591 14.6175 22.6417C13.631 22.1603 12.6704 21.6277 11.7393 21.0462C10.8247 20.4754 9.93944 19.8588 9.08669 19.1991C8.98912 18.173 8.93781 17.1006 8.93781 16.0181C8.93781 14.9356 8.98912 13.8682 9.08669 12.837C9.93944 12.1774 10.8247 11.5608 11.7393 10.99C12.6704 10.4087 13.631 9.87591 14.6175 9.39444C15.604 9.8759 16.5647 10.4087 17.4958 10.99C18.4104 11.5608 19.2956 12.1774 20.1484 12.837C20.2613 13.8682 20.2972 14.9356 20.2972 16.0181H20.2613ZM19.7789 10.3743C19.3309 10.063 18.8691 9.76022 18.3936 9.46615C17.8224 9.12419 17.2461 8.78198 16.6646 8.44001H16.6648C17.4154 8.14546 18.1808 7.8903 18.958 7.67569L19.1273 7.62942H19.1275C19.4113 8.53025 19.6426 9.44668 19.8201 10.3743L19.7789 10.3743ZM10.7489 5.65408C11.8623 3.19134 13.2579 1.77539 14.6176 1.77539C15.9772 1.77539 17.3728 3.19662 18.4502 5.67472L18.5785 5.98256H18.5322C17.1914 6.36118 15.8824 6.84493 14.6175 7.42924C13.3523 6.8502 12.0433 6.3715 10.7028 5.99792H10.6566L10.7489 5.65408ZM10.0256 7.64473L10.1948 7.691C10.9722 7.90562 11.7377 8.16077 12.4883 8.45532C11.9067 8.77347 11.3304 9.11545 10.7592 9.48146C10.2871 9.77556 9.82535 10.0784 9.37391 10.3896C9.55027 9.46727 9.78001 8.55606 10.0615 7.66004L10.0256 7.64473ZM5.62347 16.018C6.10585 15.505 6.64961 14.9509 7.19335 14.4325C7.1693 14.9559 7.15739 15.4844 7.15739 16.018C7.15739 16.5517 7.1693 17.0801 7.19335 17.6035C6.63424 17.0852 6.10558 16.5311 5.62347 16.018ZM9.41515 21.6618C9.86316 21.9731 10.3249 22.2759 10.8004 22.5699C11.3717 22.9119 11.9479 23.2541 12.5295 23.5961H12.5293C11.7787 23.8906 11.0132 24.1458 10.2358 24.3604L10.0666 24.4067C9.79651 23.5051 9.57915 22.5885 9.41493 21.6618L9.41515 21.6618ZM18.4452 26.382C17.3677 28.8601 15.9721 30.2814 14.6125 30.2814C13.2529 30.2814 11.8573 28.8601 10.7799 26.382L10.6516 26.0742H10.6979H10.6976C12.041 25.6891 13.3516 25.1985 14.6176 24.6069C15.8828 25.186 17.1919 25.6647 18.5323 26.0382H18.5785L18.4452 26.382ZM19.1685 24.3914L18.9992 24.3451C18.2218 24.1305 17.4564 23.8753 16.7058 23.5808C17.2873 23.2626 17.8636 22.9206 18.4349 22.5546C18.9069 22.2605 19.3687 21.9577 19.8202 21.6465C19.6571 22.5679 19.4413 23.4793 19.1736 24.3761L19.1685 24.3914ZM22.0367 17.6241C22.0607 17.1008 22.0726 16.5723 22.0726 16.0387C22.0726 15.505 22.0607 14.9766 22.0367 14.4532C22.601 14.9663 23.1244 15.4793 23.6065 16.0387C23.1294 16.5313 22.6008 17.0854 22.0416 17.6037L22.0367 17.6241Z" fill="white"/>
<path d="M29.24 8.13209C29.2407 8.70586 28.9938 9.25193 28.5627 9.63031C28.1997 9.95831 27.7283 10.1409 27.2391 10.1434C27.0854 10.1438 26.9321 10.1264 26.7823 10.0921C26.2931 9.97709 25.8652 9.68162 25.5842 9.26477C25.3031 8.84813 25.1897 8.34054 25.2667 7.84377C25.3437 7.347 25.6052 6.89756 25.9989 6.58538C26.3929 6.27295 26.8902 6.12086 27.3913 6.15912C27.8925 6.1976 28.3609 6.42367 28.7026 6.79222C29.0444 7.16099 29.2345 7.64497 29.2349 8.14748L29.24 8.13209Z" fill="white"/>
<path d="M3.99179 23.9041C3.99133 24.46 3.75907 24.9904 3.35089 25.3679C2.94273 25.7452 2.39553 25.9353 1.84124 25.8922C1.28717 25.8492 0.775929 25.5771 0.430971 25.1412C0.0857953 24.7053 -0.0617109 24.1453 0.0237224 23.596C0.108927 23.0465 0.419519 22.5577 0.880578 22.2471C1.34164 21.9365 1.91129 21.8323 2.45256 21.9594C2.89027 22.0634 3.28034 22.3117 3.55956 22.6644C3.839 23.0174 3.9911 23.454 3.99179 23.9041Z" fill="white"/>
<path d="M3.99175 8.13209C3.99198 8.5824 3.84013 9.01943 3.56068 9.37237C3.28124 9.72556 2.8907 9.97363 2.45257 10.0767C2.30277 10.1111 2.14954 10.1282 1.99584 10.128C1.50659 10.1255 1.0352 9.94271 0.672183 9.61495C0.165529 9.16601 -0.0788917 8.491 0.0226081 7.82172C0.124079 7.15268 0.557895 6.58051 1.17493 6.30198C1.79179 6.02369 2.50774 6.07683 3.07675 6.44331C3.64571 6.81002 3.99019 7.4399 3.99177 8.11674L3.99175 8.13209Z" fill="white"/>
<path d="M29.2402 23.9041C29.2397 24.4066 29.0496 24.8908 28.7079 25.2594C28.3661 25.6279 27.898 25.854 27.3966 25.8925C26.8954 25.9307 26.3982 25.7786 26.0044 25.4662C25.6105 25.154 25.3489 24.7046 25.272 24.2078C25.1952 23.711 25.3086 23.2037 25.5894 22.7868C25.8705 22.3699 26.2983 22.0745 26.7878 21.9595C26.9376 21.9252 27.0909 21.908 27.2443 21.9082C27.7338 21.9107 28.205 22.0935 28.5682 22.4213C28.9933 22.7971 29.2377 23.3365 29.2403 23.9041L29.2402 23.9041Z" fill="white"/>
</svg>
